PathFileType	4	(X/Y/Z)	s01c0302.trc
DataRate	CameraRate	NumFrames	NumMarkers	Units	OrigDataRate	OrigDataStartFrame	OrigNumFrames
200	200	4	48	mm	200	0	2000
Frame#	Time	racr			lacr			c7			jug			rlel			rdr			llel			ldr			s2			lic			ric			lasi			rasi			rpsi			lpsi			rgt			lgt			rth1			rth2			rth3			rth4			rlfc			rsh1			rsh2			rsh3			rsh4			rlmal			rmmal			rcal			rtoe			rmt5			lth1			lth2			lth4			lth3			llfc			lsh1			lsh2			lsh3			lsh4			llmal			lmmal			lcal			ltoe			lmt5			SBIKE			LBIKE			RBIKE			
		X1	Y1	Z1	X2	Y2	Z2	X3	Y3	Z3	X4	Y4	Z4	X5	Y5	Z5	X6	Y6	Z6	X7	Y7	Z7	X8	Y8	Z8	X9	Y9	Z9	X10	Y10	Z10	X11	Y11	Z11	X12	Y12	Z12	X13	Y13	Z13	X14	Y14	Z14	X15	Y15	Z15	X16	Y16	Z16	X17	Y17	Z17	X18	Y18	Z18	X19	Y19	Z19	X20	Y20	Z20	X21	Y21	Z21	X22	Y22	Z22	X23	Y23	Z23	X24	Y24	Z24	X25	Y25	Z25	X26	Y26	Z26	X27	Y27	Z27	X28	Y28	Z28	X29	Y29	Z29	X30	Y30	Z30	X31	Y31	Z31	X32	Y32	Z32	X33	Y33	Z33	X34	Y34	Z34	X35	Y35	Z35	X36	Y36	Z36	X37	Y37	Z37	X38	Y38	Z38	X39	Y39	Z39	X40	Y40	Z40	X41	Y41	Z41	X42	Y42	Z42	X43	Y43	Z43	X44	Y44	Z44	X45	Y45	Z45	X46	Y46	Z46	X47	Y47	Z47	X48	Y48	Z48	
0	0.0000	494.790161	1337.575562	-110.821838	494.387787	1333.657349	-426.365784	452.001923	1391.440308	-260.014282	467.065735	1233.230225	-266.781708	569.094360	1068.974365	-20.777893	732.858337	862.955811	-56.326118	571.357605	1063.801514	-505.144257	730.131226	866.330872	-435.415619	-61.225079	1150.779907	-242.961868	140.464905	1167.167969	-443.726044	103.511673	1126.878906	-93.965683	102.786560	1109.340942	-398.464508	117.061142	1076.963135	-117.836777	-27.413120	1178.516724	-192.374542	-32.471649	1190.288330	-295.921265	24.770302	1010.787720	-67.918793	45.442440	1049.300293	-460.128632	89.724457	886.830505	-46.882751	136.056259	818.654297	-57.548859	180.941467	741.940002	-71.685089	182.313507	848.402344	-69.476707	212.153976	638.675049	-94.965836	143.279205	540.407410	-62.904922	110.874550	462.068634	-66.110275	68.286827	384.188843	-79.374298	154.449707	443.225586	-103.517151	10.521069	266.856903	-100.251122	59.225636	285.015472	-176.734039	-36.671150	234.276016	-156.089172	232.739700	209.173248	-135.262192	126.056068	181.603287	-68.913971	147.583450	979.125671	-458.954437	236.604919	974.487976	-461.848755	240.903305	1028.592529	-452.458771	320.509399	961.432068	-446.066498	424.472504	900.420044	-422.721649	341.264771	823.916138	-445.245270	301.585114	747.294678	-437.127136	261.075439	672.968689	-420.936188	352.988190	724.509766	-410.283997	205.399750	557.908569	-401.887177	233.626419	566.200317	-319.485199	152.361755	518.316467	-362.455994	429.176941	503.631470	-371.576263	324.481171	480.912689	-436.379913	-224.741699	892.814575	-252.397064	-12.529579	84.755432	-456.056427	-21.695742	81.029366	-55.794403	
1	0.0050	494.870575	1337.612671	-110.909378	494.419861	1333.685425	-426.364075	452.004761	1391.463867	-260.090088	467.120880	1233.206421	-266.802155	569.237610	1069.056885	-20.919762	732.847229	862.945923	-56.335400	571.555054	1063.901489	-505.102692	730.111755	866.278625	-435.467560	-61.208939	1150.767700	-242.963608	140.475006	1167.248535	-443.821167	103.513039	1126.860596	-93.967209	102.782791	1109.345337	-398.479462	117.085800	1076.894287	-117.854500	-27.698719	1178.783813	-192.081009	-32.453259	1190.291138	-295.932098	24.811674	1010.783142	-67.956207	45.427078	1049.308350	-460.143555	89.766296	886.839661	-46.894787	136.077393	818.679260	-57.568932	180.996063	741.950928	-71.712135	182.364670	848.404053	-69.504425	212.198761	638.697021	-95.000160	143.314896	540.439697	-62.926479	110.934814	462.089752	-66.124748	68.337875	384.198242	-79.362450	154.498596	443.233795	-103.516815	10.569338	266.868805	-100.249138	59.202400	284.997406	-176.777130	-36.600201	234.294769	-156.089371	232.758240	209.129623	-135.260422	126.083801	181.613235	-68.918610	147.592117	979.133240	-458.989746	236.596954	974.672791	-462.177643	240.928177	1028.625366	-452.500793	320.562012	961.463257	-446.068054	424.481323	900.441895	-422.761719	341.274170	823.937378	-445.274750	301.581848	747.327393	-437.147583	261.065094	672.994263	-420.939453	352.984833	724.534790	-410.282684	205.390427	557.936096	-401.894257	233.594437	566.224426	-319.497894	152.341690	518.349548	-362.446289	429.148712	503.646484	-371.586884	324.466675	480.934387	-436.369385	-224.736481	892.809998	-252.401321	-12.526024	84.757133	-456.058411	-21.703794	81.042511	-55.821037	
2	0.0100	494.931061	1337.699341	-111.008110	494.421234	1333.763794	-426.394897	451.997009	1391.204834	-260.207825	467.160126	1233.182251	-266.846924	569.371094	1069.140015	-21.039818	732.847290	862.948792	-56.360249	571.755920	1063.981567	-505.021423	730.102539	866.238586	-435.509674	-61.207371	1150.775513	-242.946991	140.413025	1167.165894	-443.713684	103.522797	1126.842285	-93.962265	102.766640	1109.323242	-398.489777	117.105957	1076.890381	-117.857063	-27.704985	1178.776611	-192.072266	-32.462162	1190.299316	-295.936401	24.832411	1010.795715	-67.952530	45.418831	1049.310547	-460.142426	89.799637	886.843628	-46.923386	136.108139	818.678162	-57.599388	181.039871	741.946106	-71.736847	182.389557	848.405273	-69.532570	212.261627	638.698425	-95.014526	143.399704	540.445862	-62.949650	110.990967	462.079315	-66.138260	68.423401	384.213104	-79.368362	154.556351	443.241211	-103.532524	10.607098	266.880157	-100.249748	59.140144	284.666321	-176.852081	-36.578598	234.325302	-156.083176	232.811218	209.111526	-135.264908	126.121208	181.599640	-68.914444	147.574738	979.151001	-458.998993	236.592804	974.691345	-462.201477	240.900955	1028.629761	-452.523041	320.607300	961.524109	-446.076050	424.477386	900.462524	-422.789368	341.253418	823.957275	-445.305328	301.647034	747.405762	-437.153503	261.045502	673.040100	-420.969849	352.958435	724.557495	-410.301300	205.387726	557.970764	-401.904480	233.622269	566.304810	-319.427795	152.297836	518.440857	-362.446503	429.135010	503.650177	-371.580963	324.450714	480.958374	-436.365082	-224.737350	892.813538	-252.392273	-12.486417	84.792549	-456.078766	-21.700163	81.039330	-55.819012	
3	0.0150	495.018188	1337.775024	-111.100685	493.935516	1333.267578	-426.320709	451.978668	1390.663086	-260.367523	467.235260	1233.159790	-266.890442	569.444946	1069.314575	-21.128332	732.842102	862.952759	-56.368282	572.145935	1064.102417	-504.665955	734.137390	868.062073	-440.411896	-61.201405	1150.779785	-242.965530	140.359207	1167.096680	-443.639435	103.619110	1126.988281	-93.876312	102.758553	1109.321533	-398.502747	117.380234	1077.029663	-117.849457	-28.837103	1179.776611	-190.928543	-33.178242	1190.529541	-295.563507	24.837154	1010.670776	-67.916122	45.475903	1049.240479	-460.174408	89.947136	886.944641	-46.613319	135.920975	819.137451	-57.341316	181.085587	741.943054	-71.749100	182.426437	848.514954	-69.445068	212.309830	638.703674	-95.043083	143.448807	540.445496	-62.964081	111.043289	462.060364	-66.162880	68.460732	384.211548	-79.361786	154.601395	443.238861	-103.547363	10.304836	267.058105	-100.538750	59.061752	284.610077	-176.907349	-36.540646	234.333832	-156.094666	232.832596	209.071838	-135.262726	126.148232	181.592972	-68.910507	147.689362	979.113892	-459.051941	236.575851	974.697021	-462.224274	240.971558	1028.640625	-452.558258	320.641815	961.580688	-446.090759	424.547394	900.630615	-422.702789	342.318848	824.127625	-445.993988	303.067993	746.654907	-437.624451	261.259827	673.140442	-420.961914	353.046051	724.010925	-411.499908	205.766418	558.038757	-401.969238	233.632996	566.358887	-319.401947	152.251266	518.527710	-362.449097	429.121246	503.655396	-371.590729	324.437225	480.997070	-436.361176	-224.637131	892.755493	-252.614655	-12.548678	84.883179	-456.073669	-21.697935	81.041512	-55.814793	
